<svg width="132" height="20" viewBox="0 0 132 20" fill="none" xmlns="http://www.w3.org/2000/svg">
<g clip-path="url(#clip0_2909_5208)">
<path d="M48.2579 8.3045H44.7884V1.34948H42.6156V10.173H48.2579V8.3045ZM36.5527 1.34948H34.4499L30.7 10.173H33.0481L33.714 8.44291H37.1835L37.8844 10.173H40.2675L36.5527 1.34948ZM34.3097 6.7128L35.4312 3.66782L36.5527 6.7128H34.3097ZM56.5287 8.3045H53.0592V1.34948H50.8863V10.173H56.5287V8.3045ZM65.5004 8.3391H61.33V6.50519H65.0448V4.80969H61.33V3.14879H65.2551V1.34948H59.2623V10.173H65.5004V8.3391ZM75.4534 4.01384C75.4534 2.00692 73.7361 1.34948 72.0189 1.34948H68.6195V10.173H70.7222V6.6782H71.4582L73.3857 10.173H75.909L73.5609 6.40138C74.7525 6.02076 75.4534 5.19031 75.4534 4.01384ZM71.7736 5.12111H70.7572V3.07958H71.9138C72.5446 3.07958 73.3506 3.2526 73.3506 4.04844C73.3156 4.9481 72.4394 5.12111 71.7736 5.12111ZM109.658 1.34948H106.434V10.173H109.763C112.216 10.173 114.775 8.82353 114.775 5.74394C114.775 2.38754 112.181 1.34948 109.658 1.34948ZM109.553 8.3045H108.537V3.14879H109.623C111.095 3.14879 112.532 3.73702 112.532 5.70934C112.497 7.68166 111.095 8.3045 109.553 8.3045ZM99.2144 6.50519H102.929V4.80969H99.2144V3.14879H103.139V1.34948H97.1467V10.173H103.385V8.3391H99.2144V6.50519ZM117.543 10.173H119.716V1.34948H117.543V10.173ZM127.952 1.34948H125.849L122.099 10.173H124.447L125.113 8.44291H128.583L129.284 10.173H131.667L127.952 1.34948ZM125.709 6.7128L126.83 3.66782L127.952 6.7128H125.709ZM88.5955 6.98962H88.5605L86.5278 1.31488H83.4438V10.1384H85.4764L85.4414 3.91003H85.4764L87.7194 10.1384H89.2263L91.5394 3.91003H91.5744L91.5394 10.1384H93.6421V1.31488H90.523L88.5955 6.98962ZM65.0098 13.9792L62.4164 19.8616H63.6079L64.1336 18.5121H66.727L67.2877 19.8616H68.5143L65.956 13.9792H65.0098ZM64.5191 17.6125L65.4654 15.2249L66.3765 17.6125H64.5191ZM51.2719 15.6401C51.2719 14.3945 50.1854 13.9446 49.064 13.9446H46.9963V19.827H48.0476V17.3356H48.8186L50.1854 19.827H51.4471L49.87 17.2318C50.7462 17.0588 51.2719 16.5052 51.2719 15.6401ZM48.0827 16.5052V14.8443H49.0289C49.5897 14.8443 50.2205 15.0173 50.2205 15.6401C50.2205 16.3668 49.5546 16.5052 48.9588 16.5052H48.0827ZM41.9146 13.8062C40.0923 13.8062 38.7255 14.9827 38.7255 16.8858C38.7255 18.7197 40.0923 20 41.9146 20C43.7721 20 45.1389 18.7197 45.1389 16.8858C45.1389 15.0173 43.7721 13.8062 41.9146 13.8062ZM41.9146 19.0657C40.688 19.0657 39.882 18.1661 39.882 16.8858C39.882 15.6747 40.688 14.7405 41.9146 14.7405C43.1412 14.7405 43.9823 15.6747 43.9823 16.8858C43.9823 18.1315 43.1412 19.0657 41.9146 19.0657ZM59.2623 18.2699L57.9656 13.9446H56.8792L55.5825 18.2699L54.426 13.9446H53.2695L55.0217 19.827H56.0381L57.4399 15.4325H57.4749L58.8768 19.827H59.8931L61.6454 13.9446H60.5239L59.2623 18.2699ZM35.7116 18.3737L32.943 13.9792H31.5411V19.8616H32.5925V15.3287L35.4312 19.8616H36.7629V13.9792H35.7116V18.3737ZM71.8787 16.436L70.3717 13.9792H69.0751L71.318 17.301V19.8616H72.3694V17.301L74.6123 13.9792H73.3857L71.8787 16.436ZM8.37592 0.0346021L0 19.6194H5.6774L7.81519 14.8097L12.4412 19.6194L17.0673 14.8097L19.205 19.6194H24.8824L16.5065 0L8.37592 0.0346021ZM12.4062 13.8408L9.49738 10.4152L12.4062 4.35986L15.315 10.4152L12.4062 13.8408Z" fill="black"/>
</g>
<defs>
<clipPath id="clip0_2909_5208">
<rect width="131.667" height="20" fill="white"/>
</clipPath>
</defs>
</svg>
