<svg width="264" height="40" viewBox="0 0 264 40" fill="none" xmlns="http://www.w3.org/2000/svg">
<circle cx="20.0001" cy="20.0002" r="19.0909" stroke="white" stroke-width="1.81818"/>
<circle cx="20.0001" cy="20.0002" r="18.1818" fill="#D60000"/>
<g clip-path="url(#clip0_2909_5211)">
<path d="M4.36365 15.2729H34.6667V24.3639H4.36365V15.2729Z" fill="#D60000"/>
<path d="M12.7319 22.2893C12.763 23.315 13.4701 23.4548 14.2237 23.4548C14.7676 23.4548 15.1795 23.3227 15.4436 23.0585C15.6612 22.841 15.7777 22.5302 15.7777 22.1495V17.5108H14.62V17.8449C14.4258 17.5651 14.146 17.4175 13.7886 17.402C13.4312 17.402 13.1593 17.5574 12.9805 17.8759C12.8407 18.1168 12.7708 18.4432 12.7708 18.8083V20.7509C12.7708 21.1704 12.9028 21.5434 13.1282 21.7765C13.3069 21.9552 13.5322 22.0484 13.8119 22.0484C14.0761 22.0484 14.3248 21.9319 14.5579 21.6988V22.3515C14.5501 22.5535 14.4957 22.5923 14.2781 22.6079C14.1538 22.6157 14.0761 22.6001 14.0373 22.5613C13.9906 22.5146 13.9829 22.4214 13.9829 22.2971L12.7319 22.2893ZM14.2626 21.0073C14.1849 21.0073 14.1227 20.984 14.0839 20.9451C14.0295 20.8907 13.9984 20.7897 13.9984 20.6498V18.956C13.9906 18.7384 14.0295 18.5675 14.0994 18.4975C14.1383 18.4587 14.1771 18.4432 14.2315 18.4432C14.317 18.4432 14.3791 18.4665 14.4258 18.5131C14.4957 18.583 14.5268 18.7073 14.5268 18.9016V20.5566C14.5345 20.8752 14.4568 21.0073 14.2626 21.0073ZM18.1787 17.402C17.8368 17.402 17.5648 17.5108 17.3939 17.7128V16.1821H16.1585V22.1339H17.3162V21.8231C17.5105 22.0873 17.8213 22.2505 18.1554 22.266C18.8469 22.2427 19.1888 21.7299 19.1888 20.7509V18.8083C19.1888 18.5209 19.1422 17.977 18.8158 17.6584C18.6449 17.4874 18.4351 17.402 18.1787 17.402ZM17.9533 20.6421C17.9533 20.8208 17.9533 21.0539 17.8446 21.1704C17.8057 21.2093 17.7436 21.2326 17.6736 21.2326C17.6192 21.2326 17.5804 21.2171 17.5415 21.1782C17.4483 21.085 17.3939 20.8674 17.3939 20.5721V19.0648C17.3939 18.8783 17.4094 18.6219 17.5182 18.5053C17.5648 18.4587 17.6192 18.4432 17.6892 18.4432C17.7513 18.4432 17.7979 18.4587 17.8368 18.4975C17.9456 18.6063 17.9456 18.855 17.9456 19.0181C17.9533 19.0181 17.9533 20.6421 17.9533 20.6421ZM22.8485 17.402C22.2812 17.402 21.8617 17.5418 21.5897 17.8216C21.3644 18.0624 21.2556 18.3965 21.2789 18.8161V18.8783H22.5143V18.7773C22.5377 18.4587 22.5454 18.2644 22.8795 18.2644C22.9572 18.2644 23.0194 18.2878 23.066 18.3421C23.1282 18.4043 23.167 18.5053 23.167 18.6141V18.8239C23.167 19.1191 22.8873 19.2046 22.5066 19.3134C22.4211 19.3367 22.3356 19.36 22.2502 19.3911C21.7451 19.5543 21.2323 19.8495 21.2323 20.7819V21.1549C21.2323 21.489 21.3411 21.7687 21.5353 21.9707C21.7296 22.165 21.9938 22.266 22.3123 22.266C22.7241 22.266 22.965 22.1261 23.2059 21.8853V22.1417H24.4102V18.6607C24.4102 18.2411 24.317 17.9536 24.115 17.7516C23.8819 17.5108 23.4778 17.402 22.8485 17.402ZM22.8329 21.3181C22.7241 21.3181 22.6387 21.287 22.5765 21.2248C22.5143 21.1627 22.4833 21.0694 22.4833 20.9606V20.6809C22.4833 20.4245 22.6076 20.3002 22.7164 20.2303C22.7941 20.1681 22.9028 20.1215 23.0194 20.0671C23.0738 20.0438 23.1282 20.0205 23.1826 19.9894V20.7897C23.167 21.0306 23.1049 21.3181 22.8329 21.3181ZM10.8671 17.402C10.2999 17.402 9.88031 17.5418 9.61613 17.8216C9.3908 18.0624 9.28202 18.3965 9.30533 18.8161V18.8783H10.5408V18.7773C10.5641 18.4587 10.5718 18.2644 10.906 18.2644C10.9837 18.2644 11.0458 18.2878 11.0924 18.3421C11.1546 18.4043 11.1934 18.5053 11.1934 18.6141V18.8239C11.1934 19.1191 10.9137 19.2046 10.533 19.3134C10.4475 19.3367 10.3621 19.36 10.2766 19.3911C9.77153 19.5543 9.25871 19.8495 9.25871 20.7819V21.1549C9.25871 21.489 9.36749 21.7687 9.56174 21.9707C9.75599 22.165 10.0202 22.266 10.3387 22.266C10.7506 22.266 10.9914 22.1261 11.2323 21.8853V22.1417H12.4289V18.6607C12.4289 18.2411 12.3356 17.9536 12.1336 17.7516C11.8927 17.5108 11.4887 17.402 10.8671 17.402ZM10.8438 21.3181C10.735 21.3181 10.6495 21.287 10.5874 21.2248C10.5252 21.1627 10.4941 21.0694 10.4941 20.9606V20.6809C10.4941 20.4245 10.6185 20.3002 10.7272 20.2303C10.8049 20.1681 10.9137 20.1215 11.0303 20.0671C11.0847 20.0438 11.1391 20.0205 11.1934 19.9894V20.7897C11.1779 21.0306 11.1157 21.3181 10.8438 21.3181ZM26.5625 16.1821H26.5237V17.7672C26.3139 17.5263 26.0575 17.402 25.7622 17.402C24.822 17.402 24.7521 18.4742 24.7521 18.8083V20.7509C24.7521 21.7299 25.1018 22.2427 25.7855 22.266C26.0963 22.266 26.3993 22.1028 26.6091 21.8153V22.1417H27.7669V16.1821H26.5625ZM25.9875 19.0337C25.9875 18.8627 25.9875 18.6063 26.1041 18.4898C26.1429 18.4509 26.1973 18.4276 26.275 18.4276C26.3216 18.4276 26.3605 18.4432 26.3993 18.4742C26.4615 18.5364 26.5392 18.6918 26.5392 19.1036V20.611C26.5392 21.0694 26.4693 21.2248 26.2595 21.2248C26.1973 21.2248 26.1429 21.2093 26.1119 21.1704C26.0031 21.0617 26.0031 20.8208 26.0031 20.6576V19.0648C25.9875 19.0648 25.9875 19.0337 25.9875 19.0337ZM29.6705 17.402C29.1888 17.402 28.8158 17.5108 28.5594 17.7128C28.2641 17.9459 28.1087 18.3188 28.1087 18.8083V20.984C28.1087 21.3491 28.2175 21.6444 28.4429 21.862C28.7847 22.2038 29.2976 22.266 29.6705 22.266C30.2066 22.2582 30.6029 22.1184 30.8593 21.8387C31.1002 21.5745 31.209 21.2015 31.1857 20.712V20.6498H29.958V20.8286C29.9502 21.015 29.9425 21.186 29.8492 21.2714C29.8026 21.3181 29.7327 21.3336 29.6317 21.3258C29.383 21.3103 29.3442 21.1005 29.3442 20.9762V20.2458H31.2245V18.5986C31.2245 18.2722 31.1235 18.008 30.9215 17.806C30.5796 17.4641 30.0512 17.3942 29.6705 17.402ZM29.9891 19.3833H29.3442V18.7229C29.3442 18.5364 29.383 18.4121 29.453 18.3344C29.5073 18.28 29.5773 18.2567 29.6705 18.2567C29.756 18.2567 29.8259 18.2878 29.8803 18.3421C29.958 18.4198 29.9813 18.5286 29.9813 18.5986V19.3833H29.9891ZM32.9106 17.5108V16.6871H31.6752V17.5185H31.3644V18.4432H31.6752V21.2326C31.6752 21.5356 31.7607 21.7765 31.9238 21.9397C32.0948 22.1106 32.3434 22.1961 32.6697 22.1961C32.9261 22.1961 33.167 22.165 33.3924 22.1339L33.4467 22.1261V21.2248H33.3768C33.3069 21.2248 33.1903 21.2248 33.0893 21.2404C33.0194 21.2404 32.9805 21.2248 32.9572 21.2015C32.9261 21.1704 32.9106 21.116 32.9106 21.0306V18.4432H33.439V17.5108H32.9106ZM8.35739 16.4307C7.95335 16.1976 7.41722 16.1743 6.94325 16.1743H5.5835V22.1261H7.26182C7.62701 22.1261 8.03882 22.0951 8.38847 21.8697C8.75366 21.6444 8.93237 21.2559 8.94014 20.6887V17.7749C8.94014 17.2854 8.87021 16.7338 8.35739 16.4307ZM7.63478 20.1448C7.63478 20.5488 7.65032 20.813 7.51046 20.9451C7.40945 21.0383 7.23074 21.0772 6.95102 21.0617V17.2466C7.47938 17.2621 7.63478 17.301 7.63478 17.8449V20.1448ZM21.0769 21.3958C20.9681 21.3958 20.8982 21.3725 20.8438 21.3258C20.7816 21.2637 20.7505 21.1471 20.7505 20.9762V16.1821H19.5151V20.8208C19.5151 21.3569 19.6472 21.7066 19.9269 21.9241C20.1678 22.1028 20.5097 22.1805 21.0691 22.1805V21.3958H21.0769Z" fill="white"/>
</g>
<circle cx="52.0001" cy="20.0002" r="19.0909" stroke="white" stroke-width="1.81818"/>
<circle cx="52.0001" cy="20.0002" r="18.1818" fill="#FF0000"/>
<g clip-path="url(#clip1_2909_5211)">
<path d="M62.7274 8H40.9092V31.7363H62.7274V8Z" fill="#FF0000"/>
<path d="M52.9181 27.8268H52.1023V26.3555H51.0194V30.318H52.1023V28.8466H52.9181V30.318H54.001V26.3555H52.9181V27.8268Z" fill="white"/>
<path d="M61.1491 29.6236C61.0714 29.1865 61.0811 28.7738 60.4887 28.5504C60.95 28.4096 61.2899 27.9871 61.2899 27.4772C61.2899 26.8556 60.7849 26.3555 60.1682 26.3555H58.3278V30.318H59.4107V28.9437C59.4107 28.9437 59.5321 28.9195 59.6292 28.9389C59.7506 28.9583 59.8768 29.0554 59.9351 29.1671C59.94 29.1768 59.9497 29.1914 59.9545 29.2011C59.9788 29.2497 59.9982 29.3031 60.0128 29.3565L60.1051 29.8033C60.1391 29.9781 60.1925 30.1529 60.2605 30.318H60.3042H61.3434H61.3579H61.4016C61.4016 30.318 61.222 30.0606 61.1491 29.6236ZM59.8089 28.0551H59.4107V27.249H59.8089C60.0322 27.249 60.2119 27.4287 60.2119 27.652C60.2119 27.8754 60.0322 28.0551 59.8089 28.0551Z" fill="white"/>
<path d="M45.0417 26.5111C44.7649 26.3266 44.4444 26.2246 44.1044 26.2246C43.075 26.2246 42.2349 27.1715 42.2349 28.3467C42.2349 28.842 42.3805 29.2936 42.6331 29.6578C42.7399 29.8084 42.8613 29.9443 42.9973 30.0609C43.308 30.3182 43.6868 30.4688 44.0996 30.4688C45.1291 30.4688 45.9643 29.5219 45.9643 28.3467C45.9643 27.7688 45.7652 27.2541 45.4398 26.8705C45.3233 26.7296 45.1873 26.6082 45.0417 26.5111ZM44.0996 29.4247C43.9345 29.4247 43.7839 29.3422 43.6625 29.1965C43.5411 29.0557 43.4537 28.8614 43.4149 28.6381C43.3955 28.5458 43.3857 28.4487 43.3857 28.3467C43.3857 27.7543 43.7062 27.2687 44.0996 27.2687C44.2016 27.2687 44.3035 27.3026 44.3909 27.3658C44.5318 27.458 44.6435 27.6183 44.7163 27.8174C44.7794 27.9728 44.8086 28.1573 44.8086 28.3467C44.8086 28.9391 44.4929 29.4247 44.0996 29.4247Z" fill="white"/>
<path d="M57.9151 26.3557H57.2449L57.1235 26.5111C56.8467 26.3266 56.5262 26.2246 56.1863 26.2246C55.1568 26.2246 54.3167 27.1715 54.3167 28.3467C54.3167 28.842 54.4624 29.2936 54.7149 29.6578L54.4381 30.022L54.2196 30.3085L54.2342 30.3183H54.88L55.0791 30.056C55.3899 30.3134 55.7687 30.4639 56.1814 30.4639C57.2109 30.4639 58.0462 29.517 58.0462 28.3418C58.0462 27.764 57.8471 27.2492 57.5217 26.8656L57.9151 26.3557ZM55.4773 28.3467C55.4773 27.7543 55.7978 27.2687 56.1912 27.2687C56.2931 27.2687 56.3951 27.3026 56.4777 27.3658L55.5065 28.6381C55.4822 28.5409 55.4773 28.4438 55.4773 28.3467ZM56.8953 28.3467C56.8953 28.9391 56.5748 29.4247 56.1863 29.4247C56.0212 29.4247 55.8707 29.3422 55.7493 29.1965L56.803 27.8174C56.8613 27.9728 56.8953 28.1525 56.8953 28.3467Z" fill="white"/>
<path d="M47.999 28.0941V28.8954H48.6691C48.5963 29.211 48.3195 29.415 48.0573 29.415C47.6591 29.415 47.3386 28.9342 47.3386 28.3418C47.3386 28.2689 47.3434 28.1913 47.358 28.1184C47.4163 27.6085 47.7076 27.22 48.0573 27.22C48.0621 27.22 48.0718 27.22 48.0767 27.22C48.1689 27.2249 48.2612 27.254 48.3438 27.3123C48.4215 27.3657 48.4943 27.4386 48.5574 27.5308C48.572 27.5503 48.5817 27.5697 48.5914 27.5891H49.8297C49.8054 27.3414 49.718 27.1084 49.5626 26.9141C49.3927 26.6956 49.1596 26.5208 48.9022 26.4042C48.6643 26.2925 48.402 26.2294 48.1447 26.2197C48.1155 26.2197 48.0864 26.2148 48.0573 26.2148C47.4745 26.2148 46.9501 26.5111 46.6004 26.9724C46.5859 26.9918 46.5762 27.0064 46.5616 27.0258C46.3042 27.3851 46.1537 27.8416 46.1537 28.3369C46.1537 28.8322 46.3042 29.2839 46.5616 29.6481C46.6684 29.7986 46.7898 29.9346 46.9355 30.0511C47.2512 30.3085 47.6348 30.4542 48.0573 30.4542C49.3101 30.4542 49.9463 29.415 49.9608 28.3661C49.9608 28.2738 49.956 28.1767 49.9463 28.0844H47.999V28.0941Z" fill="white"/>
<path d="M61.3968 13.3418V9.71924H52.8939V25.2489H61.3968V21.6214H56.9876V19.1108H61.3968V15.4834H56.9876V13.3418H61.3968Z" fill="white"/>
<path d="M61.3968 21.6209L56.9875 19.1104V21.6209H61.3968Z" fill="black"/>
<path d="M61.3968 13.3418L56.9875 15.4833V13.3418H61.3968Z" fill="black"/>
<path d="M52.889 9.71924V25.2489L51.947 23.5687C52.7919 22.3547 53.025 20.7667 52.3306 19.1594C51.7916 17.9211 50.6941 17.149 49.5772 16.4351C49.0091 16.0709 48.4166 15.7456 47.8339 15.4105C47.3531 15.1289 46.4645 14.6918 46.4742 13.978C46.4742 13.5215 46.8433 13.1525 47.2949 13.1525C47.7465 13.1525 48.1155 13.5215 48.1155 13.978V14.5267H51.9664V13.3661C51.9567 12.8465 51.8401 12.3658 51.6459 11.9336L52.889 9.71924Z" fill="black"/>
<path d="M47.4066 21.9562C46.9112 21.9562 46.4499 21.4609 46.4499 20.9607V20.6548H42.502L45.605 18.8872C45.7701 18.994 45.9303 19.0912 46.0809 19.1786C46.0809 19.1786 46.5373 19.4408 46.7364 19.5476C46.9647 19.6885 47.8727 20.1352 48.2078 20.582C48.6157 21.1453 48.1107 21.9756 47.4066 21.9562Z" fill="black"/>
<path d="M51.947 23.5686C51.0486 24.8603 49.451 25.7295 47.5474 25.7295C45.1048 25.7295 43.211 24.3844 42.6671 22.4857C42.5651 22.1264 42.5263 21.7622 42.5165 21.3931C42.5117 21.1357 42.5068 20.8152 42.502 20.655H46.4451V20.9609C46.4451 21.4611 46.9113 21.9564 47.4017 21.9564C48.1058 21.9758 48.6157 21.1454 48.203 20.5821C47.8679 20.1305 46.9598 19.6838 46.7316 19.5478C46.5373 19.441 46.076 19.1788 46.076 19.1788C45.9255 19.0913 45.7652 18.9942 45.6001 18.8874C44.2016 18.0133 42.3514 16.5371 42.2446 14.2207C42.1426 12.2589 43.2352 10.6273 45.0125 9.81145C47.29 8.65572 50.6116 9.61721 51.641 11.9238C51.8353 12.356 51.9518 12.8368 51.9615 13.3564V14.517H48.1107V13.9731C48.1107 13.5166 47.7416 13.1476 47.29 13.1476C46.8384 13.1476 46.4694 13.5166 46.4694 13.9731C46.4645 14.6869 47.3483 15.124 47.8291 15.4056C48.4118 15.7407 49.0042 16.066 49.5724 16.4302C50.6893 17.1392 51.7867 17.9113 52.3257 19.1545C53.025 20.7667 52.7919 22.3595 51.947 23.5686Z" fill="white"/>
</g>
<circle cx="84.0001" cy="20.0002" r="19.0909" stroke="white" stroke-width="1.81818"/>
<circle cx="84.0001" cy="20.0002" r="18.1818" fill="black"/>
<g clip-path="url(#clip2_2909_5211)">
<path fill-rule="evenodd" clip-rule="evenodd" d="M76.3122 10.6274C76.4367 10.6274 76.5273 10.7293 76.5273 10.8426V27.6327C76.5273 27.7572 76.4254 27.8478 76.3122 27.8478H73.6629C73.5383 27.8478 73.4478 27.7459 73.4478 27.6327V10.8426C73.4478 10.7293 73.5496 10.6274 73.6629 10.6274H76.3122Z" fill="white"/>
<path fill-rule="evenodd" clip-rule="evenodd" d="M76.7651 21.7795C76.6971 21.6776 76.7085 21.5191 76.7877 21.4285L80.1956 17.4999C80.4107 17.2621 80.6597 17.1262 80.8296 17.0583C80.9768 17.0017 81.2485 16.9111 81.5768 16.9111H84.1921C84.3167 16.9111 84.3506 16.9904 84.2714 17.081L80.2522 21.6097L84.3733 27.6668C84.4412 27.7687 84.4072 27.8479 84.2827 27.8479H82.1316C81.6334 27.8479 81.2938 27.7574 81.0107 27.6215C80.739 27.497 80.456 27.2705 80.1956 26.8969L76.7651 21.7795Z" fill="white"/>
<path fill-rule="evenodd" clip-rule="evenodd" d="M87.464 10.6274C87.5885 10.6274 87.6791 10.7293 87.6791 10.8426V27.6327C87.6791 27.7572 87.5772 27.8478 87.464 27.8478H84.8147C84.6902 27.8478 84.5996 27.7459 84.5996 27.6327V10.8426C84.5996 10.718 84.7015 10.6274 84.8147 10.6274H87.464Z" fill="white"/>
<path fill-rule="evenodd" clip-rule="evenodd" d="M87.9283 21.7795C87.8603 21.6776 87.8717 21.5191 87.9509 21.4285L91.3588 17.4999C91.5739 17.2621 91.823 17.1262 91.9928 17.0583C92.14 17.0017 92.4117 16.9111 92.74 16.9111H95.3553C95.4799 16.9111 95.5138 16.9904 95.4346 17.081L91.404 21.6097L95.5252 27.6668C95.5931 27.7687 95.5591 27.8479 95.4346 27.8479H93.2835C92.7853 27.8479 92.4456 27.7574 92.1626 27.6215C91.8909 27.497 91.6078 27.2705 91.3474 26.8969L87.9283 21.7795Z" fill="white"/>
</g>
<circle cx="116" cy="20.0002" r="19.0909" stroke="white" stroke-width="1.81818"/>
<circle cx="116" cy="20.0002" r="18.1818" fill="#F2F2F2"/>
<g clip-path="url(#clip3_2909_5211)">
<path d="M106.066 22.209C106.148 22.2334 106.194 22.3199 106.169 22.4014C105.919 23.2346 105.125 23.7663 104.309 23.8749C103.094 24.0369 101.98 23.4413 101.523 22.3881C101.004 21.1931 101.314 19.7509 102.251 18.9964C103.091 18.3202 104.43 18.2682 105.313 18.8832C105.961 19.3348 106.217 19.9985 106.287 20.7512C106.306 20.9463 106.296 21.1443 106.292 21.3657C106.291 21.4522 106.22 21.5217 106.134 21.5217H102.704C102.72 22.1054 103.055 22.5188 103.587 22.6546C104.084 22.7954 104.721 22.6583 105.042 22.0318C105.075 21.9669 105.15 21.9356 105.22 21.9563L106.066 22.209ZM104.904 20.5583C104.803 19.8848 104.414 19.5741 103.75 19.5994C103.191 19.6211 102.784 20.0018 102.745 20.5583H104.904Z" fill="black"/>
<path d="M115.544 18.5991H116.812C116.891 18.5991 116.954 18.6626 116.954 18.7409V23.7552H115.708C115.617 23.7552 115.544 23.682 115.544 23.5918V18.5991Z" fill="black"/>
<path d="M116.249 17.9735C116.639 17.9735 116.954 17.6579 116.954 17.2687C116.954 16.8795 116.639 16.564 116.249 16.564C115.86 16.564 115.545 16.8795 115.545 17.2687C115.545 17.6579 115.86 17.9735 116.249 17.9735Z" fill="black"/>
<path d="M118.053 16.1821V23.7553H118.406C118.99 23.7553 119.463 23.2821 119.463 22.6984V17.2975C119.463 16.6816 118.964 16.1821 118.348 16.1821H118.053Z" fill="black"/>
<path d="M107.176 16.1821V22.6984C107.176 23.2821 107.65 23.7553 108.233 23.7553H108.586V17.1608C108.586 16.6204 108.148 16.1821 107.608 16.1821H107.176Z" fill="black"/>
<path d="M112.324 18.5993C111.878 18.5993 111.458 18.7125 111.092 18.9118V17.2045C111.092 16.6397 110.634 16.1821 110.07 16.1821H109.682V23.7553H110.035C110.388 23.7553 110.699 23.5823 110.891 23.3166C111.361 23.6324 111.941 23.7972 112.562 23.7411C113.817 23.6278 114.819 22.593 114.895 21.335C114.985 19.8375 113.799 18.5988 112.323 18.5988L112.324 18.5993ZM112.125 22.3564C111.628 22.2768 111.226 21.8768 111.144 21.3801C111.009 20.5593 111.709 19.8592 112.527 19.994C113.022 20.0755 113.42 20.4742 113.503 20.9685C113.641 21.7865 112.946 22.4881 112.125 22.3564Z" fill="black"/>
<path d="M125.119 22.3685H122.973C122.896 22.3685 122.854 22.2801 122.901 22.2198L124.36 20.39L124.658 20.019C124.757 19.8874 124.839 19.7493 124.904 19.6047C125.024 19.3373 125.085 19.0482 125.085 18.7375C125.079 18.1271 124.869 17.6157 124.464 17.2189C124.065 16.8156 123.54 16.6085 122.902 16.6021C122.632 16.6062 122.375 16.6536 122.145 16.7443C121.886 16.8456 121.653 17.0011 121.448 17.2101C121.062 17.6134 120.85 18.1289 120.824 18.7439L120.822 18.8217C120.82 18.8737 120.861 18.9165 120.913 18.9165H122.103C122.124 18.9165 122.142 18.9 122.143 18.8779C122.147 18.7126 122.209 18.0728 122.941 18.0728C123.72 18.0728 123.802 18.9635 123.539 19.2917L120.867 22.6405C120.836 22.6806 120.818 22.7298 120.818 22.7809L120.823 23.5331C120.824 23.656 120.923 23.755 121.046 23.755H125.12C125.17 23.755 125.211 23.714 125.211 23.6634V22.4592C125.211 22.4085 125.17 22.3676 125.12 22.3676L125.119 22.3685Z" fill="#D03728"/>
<path d="M130.129 20.3241H129.738V19.247C129.738 19.1411 129.652 19.055 129.546 19.055H128.489C128.383 19.055 128.297 19.1411 128.297 19.247V20.3241H127.294V18.7701C127.294 18.069 126.726 17.501 126.025 17.501C125.93 17.501 125.854 17.5779 125.854 17.6727V21.5771C125.854 21.6618 125.915 21.7313 125.995 21.7456C126.024 21.758 126.056 21.7649 126.089 21.7649H128.297V23.5634C128.297 23.6693 128.383 23.7554 128.489 23.7554H129.546C129.652 23.7554 129.738 23.6693 129.738 23.5634V21.7649H130.129C130.258 21.7649 130.364 21.6595 130.364 21.5297V20.5593C130.364 20.4295 130.258 20.3241 130.129 20.3241Z" fill="#D03728"/>
</g>
<circle cx="148" cy="20.0002" r="19.0909" stroke="white" stroke-width="1.81818"/>
<circle cx="148" cy="20.0002" r="18.1818" fill="#041A39"/>
<g clip-path="url(#clip4_2909_5211)">
<path d="M160.663 15.6104L160.13 19.3225L159.874 15.6104H158.109L156.995 23.372H158.671L159.229 19.488L159.528 23.372H161.204L162.319 15.6104H160.663Z" fill="white"/>
<path d="M152.795 23.372L153.91 15.6104H157.34L157.124 17.1156H155.437L155.219 18.6303H156.838L156.628 20.0878H155.011L154.756 21.8572H156.554L156.336 23.372H152.795Z" fill="white"/>
<path d="M150.171 23.4593C149.375 23.4593 148.834 23.2774 148.546 22.9135C148.259 22.5497 148.17 21.988 148.279 21.2285L148.389 20.4679H150.085L149.98 21.1648C149.907 21.6645 150.008 21.9143 150.281 21.9143C150.341 21.9149 150.401 21.902 150.456 21.8767C150.511 21.8514 150.56 21.8143 150.599 21.7679C150.689 21.6582 150.744 21.5242 150.758 21.3828C150.789 21.2089 150.786 21.0305 150.748 20.8578C150.71 20.71 150.642 20.5715 150.549 20.4504C150.398 20.262 150.233 20.0839 150.058 19.9174L149.421 19.2889C148.909 18.784 148.697 18.2154 148.785 17.5832C148.886 16.8947 149.135 16.3824 149.534 16.0461C149.966 15.6996 150.509 15.5205 151.062 15.5417H151.364C151.568 15.5496 151.769 15.5865 151.962 15.6515C152.195 15.7201 152.406 15.846 152.577 16.0175C152.76 16.214 152.878 16.4625 152.914 16.7287C152.967 17.0985 152.962 17.4743 152.9 17.8425H151.178L151.235 17.3763C151.241 17.3332 151.237 17.2894 151.223 17.2481C151.21 17.2068 151.187 17.169 151.157 17.1377C151.13 17.1051 151.095 17.079 151.057 17.0611C151.018 17.0433 150.976 17.0341 150.933 17.0342C150.822 17.0327 150.714 17.0698 150.627 17.1392C150.584 17.1716 150.548 17.2121 150.521 17.2586C150.493 17.305 150.476 17.3564 150.468 17.4097C150.436 17.6314 150.563 17.8717 150.847 18.1305L151.764 18.9691C151.904 19.0955 152.032 19.2351 152.145 19.3859C152.243 19.5141 152.323 19.6548 152.382 19.8044C152.43 19.9274 152.472 20.0528 152.507 20.1799C152.536 20.299 152.55 20.4216 152.548 20.5443C152.548 20.6764 152.548 20.775 152.537 20.8418C152.526 20.9087 152.521 21.001 152.505 21.1028C152.471 21.3541 152.418 21.6025 152.346 21.8459C152.277 22.0683 152.183 22.2819 152.064 22.4823C151.84 22.8976 151.461 23.2071 151.009 23.3431C150.738 23.4281 150.455 23.4694 150.171 23.4656" fill="white"/>
<path d="M136.91 17.184L136.799 17.9541C136.79 18.0191 136.778 18.0834 136.761 18.1466C136.745 18.2091 136.721 18.2695 136.691 18.3264C136.664 18.393 136.616 18.4489 136.554 18.4856C136.489 18.5237 136.415 18.5425 136.341 18.5397H135.989L136.237 16.8196H136.597C136.84 16.8196 136.944 16.9421 136.915 17.1888M136.551 20.4586L136.412 21.4339C136.356 21.8137 136.105 22.0036 135.66 22.0036C135.625 22.0036 135.569 22.0036 135.491 21.9924L135.809 19.7426H136.127C136.2 19.734 136.273 19.7457 136.339 19.7763C136.405 19.8069 136.461 19.8553 136.501 19.916C136.572 20.0879 136.587 20.2775 136.546 20.4586M138.349 16.0113C138.096 15.744 137.666 15.6104 137.057 15.6104H134.734L133.62 23.372H135.943C136.267 23.3802 136.589 23.3229 136.89 23.2033C137.15 23.0951 137.376 22.9186 137.545 22.6925C137.722 22.4555 137.859 22.1918 137.952 21.9113C138.062 21.5683 138.141 21.2164 138.19 20.8595C138.212 20.7004 138.228 20.5636 138.237 20.4506C138.249 20.3093 138.249 20.1671 138.237 20.0258C138.229 19.8801 138.197 19.7367 138.143 19.6009C138.088 19.4748 138.007 19.362 137.905 19.27C137.783 19.1594 137.634 19.0826 137.474 19.0472C137.595 19.0206 137.712 18.9761 137.82 18.9152C137.913 18.8641 138 18.8039 138.08 18.7354C138.155 18.6666 138.219 18.586 138.269 18.4967C138.325 18.398 138.369 18.3169 138.4 18.2501C138.438 18.1613 138.468 18.0691 138.489 17.9748C138.517 17.8586 138.535 17.7711 138.543 17.717L138.592 17.3813C138.683 16.7337 138.603 16.277 138.349 16.0081" fill="white"/>
<path d="M141.663 15.5464H141.569C140.858 15.5464 140.296 15.723 139.902 16.081C139.482 16.4745 139.219 17.0062 139.16 17.5783L138.63 21.2745C138.559 21.6685 138.583 22.0739 138.7 22.4567L141.663 15.5464Z" fill="white"/>
<path d="M139.248 25.0187H133.448L133.599 23.8556H138.476L143.394 12.1399L144.646 16.7781L146.715 11.1487L146.069 10.9434L147.724 9.91553L148.481 11.7103L147.827 11.5019L144.524 20.7831L143.154 15.7137L139.248 25.0187Z" fill="#4DC0E7"/>
<path d="M146.621 17.7819C146.552 18.2571 146.404 18.4947 146.177 18.4947H145.749L145.956 17.0468H146.05C146.322 17.0468 146.497 17.0913 146.573 17.1789C146.65 17.2664 146.667 17.4684 146.621 17.7819ZM148.331 16.4803C148.307 16.308 148.241 16.1441 148.139 16.003C148.028 15.8724 147.886 15.7727 147.725 15.7134C147.509 15.6355 147.28 15.5988 147.051 15.6052H144.42L143.297 23.3716H145.031L145.545 19.8424C145.673 19.8424 145.766 19.8456 145.827 19.852C145.891 19.8594 145.954 19.8783 146.011 19.9077C146.042 19.9226 146.069 19.945 146.089 19.9728C146.109 20.0006 146.122 20.0329 146.126 20.0668C146.142 20.1621 146.142 20.2594 146.126 20.3548L145.684 23.3716H147.362C147.468 22.7044 147.615 21.7301 147.802 20.4487C147.818 20.3381 147.826 20.2263 147.825 20.1145C147.821 20.0071 147.805 19.9005 147.779 19.7963C147.752 19.6785 147.686 19.5729 147.593 19.4956C147.485 19.4115 147.358 19.3567 147.222 19.3364C147.379 19.2929 147.527 19.2217 147.658 19.1264C147.77 19.0508 147.868 18.9573 147.95 18.8496C148.025 18.7405 148.086 18.6217 148.129 18.4963C148.173 18.3824 148.207 18.2654 148.233 18.1463C148.252 18.054 148.271 17.9331 148.292 17.7867C148.331 17.5082 148.357 17.2711 148.365 17.0738C148.374 16.8768 148.362 16.6793 148.327 16.4851" fill="white"/>
<path d="M143.074 16.6221L140.228 23.4529C140.295 23.4529 140.361 23.4529 140.431 23.4529C140.77 23.4597 141.108 23.4059 141.428 23.2937C141.702 23.1941 141.95 23.0343 142.155 22.8259C142.346 22.6232 142.503 22.3898 142.618 22.1354C142.737 21.8609 142.819 21.5712 142.86 21.2746L143.37 17.7295L143.074 16.6221Z" fill="white"/>
</g>
<circle cx="180" cy="20.0002" r="19.0909" stroke="white" stroke-width="1.81818"/>
<circle cx="180" cy="20.0002" r="18.1818" fill="#E20613"/>
<g clip-path="url(#clip5_2909_5211)">
<path d="M180 38.182C190.042 38.182 198.182 30.0417 198.182 20.0002C198.182 9.95864 190.042 1.81836 180 1.81836C169.959 1.81836 161.818 9.95864 161.818 20.0002C161.818 30.0417 169.959 38.182 180 38.182Z" fill="#E20613"/>
<path d="M172.509 12.4365C174.8 12.4365 176 13.8183 176 16.2183V16.6911H173.782V16.0729C173.782 14.982 173.345 14.582 172.618 14.582C171.855 14.582 171.455 14.982 171.455 16.0729C171.455 19.1638 176.073 19.7456 176.073 24.0365C176.073 26.4365 174.873 27.8183 172.545 27.8183C170.218 27.8183 169.018 26.4365 169.018 24.0365V23.1274H171.236V24.2183C171.236 25.3093 171.709 25.6729 172.473 25.6729C173.236 25.6729 173.709 25.2729 173.709 24.2183C173.709 21.1274 169.091 20.5456 169.091 16.2547C169.018 13.8183 170.218 12.4365 172.509 12.4365Z" fill="white"/>
<path d="M177.309 16.2183C177.309 13.8183 178.582 12.4365 180.909 12.4365C183.236 12.4365 184.509 13.8183 184.509 16.2183V24.0365C184.509 26.4365 183.236 27.8183 180.909 27.8183C178.582 27.8183 177.309 26.4365 177.309 24.0365V16.2183ZM179.673 24.182C179.673 25.2729 180.146 25.6729 180.909 25.6729C181.673 25.6729 182.146 25.2729 182.146 24.182V16.0729C182.146 14.982 181.673 14.582 180.909 14.582C180.146 14.582 179.673 14.982 179.673 16.0729V24.182Z" fill="white"/>
<path d="M191.055 27.6363C190.655 27.6727 190.364 27.6727 189.927 27.6727C188.146 27.6727 186.546 26.9091 186.546 23.8909V12.6182H188.909V24.0727C188.909 25.2363 189.527 25.5273 190.255 25.5273C190.509 25.5273 190.8 25.5273 191.055 25.4909V27.6363Z" fill="white"/>
</g>
<circle cx="212" cy="20.0002" r="19.0909" stroke="white" stroke-width="1.81818"/>
<circle cx="212" cy="20.0002" r="18.1818" fill="#FAFAFA"/>
<g clip-path="url(#clip6_2909_5211)">
<path d="M210.639 13.4546H197.273V26.9226H210.639V13.4546Z" fill="#ED1C24"/>
<path d="M211.928 22.9494C212.288 23.0912 212.773 23.2016 213.375 23.2016C214.737 23.2016 215.542 22.4843 215.542 21.4674C215.542 19.6781 213.36 19.7491 213.36 19.0712C213.36 18.8505 213.524 18.6691 214.087 18.6691C214.463 18.6691 214.87 18.748 215.19 18.9135V17.4868C214.885 17.3685 214.455 17.2739 213.993 17.2739C212.578 17.2739 211.991 18.0701 211.991 18.8977C211.991 20.624 214.126 20.4979 214.126 21.3019C214.126 21.5935 213.9 21.7906 213.289 21.7906C212.789 21.7906 212.272 21.6566 211.928 21.4832V22.9494Z" fill="#010000"/>
<path d="M215.933 17.6201C215.933 18.0616 216.238 18.3848 216.77 18.3848C217.302 18.3848 217.607 18.0616 217.607 17.6201C217.607 17.1708 217.302 16.8477 216.77 16.8477C216.238 16.8477 215.933 17.1708 215.933 17.6201ZM216.074 23.0749H217.466V18.6606H216.074V23.0749Z" fill="#010000"/>
<path d="M218.088 20.8674C218.088 22.5148 218.62 23.2006 219.402 23.2006C219.942 23.2006 220.481 22.8617 220.661 21.8763L220.787 23.0745H222.046V17.1626H220.646V19.7954C220.458 18.8573 219.926 18.5342 219.402 18.5342C218.62 18.5342 218.088 19.2199 218.088 20.8674ZM219.488 20.8674C219.488 20.1501 219.723 19.8427 220.09 19.8427C220.45 19.8427 220.677 20.1501 220.677 20.8674C220.677 21.5847 220.45 21.8921 220.09 21.8921C219.723 21.8921 219.488 21.5847 219.488 20.8674Z" fill="#010000"/>
<path d="M222.632 20.8674C222.632 22.2469 223.383 23.2006 224.783 23.2006C225.245 23.2006 225.675 23.1139 226.106 22.9563V21.6477C225.761 21.8054 225.37 21.9079 224.979 21.9079C224.455 21.9079 224.142 21.6399 224.033 21.1669H226.34C226.356 21.0645 226.364 20.9699 226.364 20.7964C226.364 19.4643 225.754 18.5342 224.58 18.5342C223.344 18.5342 222.632 19.4879 222.632 20.8674ZM224.572 19.7638C224.901 19.7638 225.089 19.9845 225.112 20.5678H224.001C224.033 19.9688 224.236 19.7638 224.572 19.7638Z" fill="#010000"/>
<path d="M198.553 23.0748H200.602C201.893 23.0748 202.769 22.1211 202.769 20.2372C202.769 18.3532 201.893 17.3994 200.602 17.3994H198.553V23.0748ZM200.43 18.7789C201.033 18.7789 201.338 19.1257 201.338 20.2372C201.338 21.3486 201.033 21.6954 200.43 21.6954H199.992V18.7789H200.43Z" fill="white"/>
<path d="M203.254 17.6201C203.254 18.0616 203.559 18.3848 204.091 18.3848C204.623 18.3848 204.928 18.0616 204.928 17.6201C204.928 17.1708 204.623 16.8477 204.091 16.8477C203.559 16.8477 203.254 17.1708 203.254 17.6201ZM203.395 23.0749H204.787V18.6606H203.395V23.0749Z" fill="white"/>
<path d="M205.557 23.0745H206.95V20.5521C206.95 20.1737 207.138 19.9136 207.458 19.9136C207.779 19.9136 207.967 20.1737 207.967 20.5521V23.0745H209.359V19.9609C209.359 19.0702 208.859 18.5342 208.155 18.5342C207.536 18.5342 207.036 18.9441 206.942 19.9373L206.817 18.6603H205.557V23.0745Z" fill="white"/>
</g>
<circle cx="244" cy="20.0002" r="19.0909" stroke="white" stroke-width="1.81818"/>
<circle cx="244" cy="20.0002" r="18.1818" fill="url(#paint0_linear_2909_5211)"/>
<g clip-path="url(#clip7_2909_5211)">
<path d="M243.818 38.0004C253.86 38.0004 262 29.8601 262 19.8185C262 9.777 253.86 1.63672 243.818 1.63672C233.777 1.63672 225.636 9.777 225.636 19.8185C225.636 29.8601 233.777 38.0004 243.818 38.0004Z" fill="url(#paint1_linear_2909_5211)"/>
<path d="M258.442 22.3433L249.246 17.4521V6.77637L229.318 17.3944L239.082 22.6674V32.6408L258.442 22.3433ZM249.246 21.2375L251.072 22.1956L249.246 23.1681V21.2339V21.2375ZM252.355 22.1956L249.246 20.546V18.1256L257.159 22.3433L239.687 31.6503V22.9124L242.179 24.2378V27.6055L252.358 22.192L252.355 22.1956ZM242.781 26.6114L242.767 24.5764L244.704 25.5885L242.781 26.6078V26.6114ZM230.6 17.3944L239.082 12.8742V15.1181L235.405 17.2432L246.03 22.9052V11.5848L242.136 13.6594L239.874 12.4528L248.655 7.78127V23.4923L245.345 25.2499L230.6 17.3944ZM239.082 15.9609V18.5218L236.68 17.2396L239.082 15.9573V15.9609ZM245.439 15.4171L242.777 13.9907L245.439 12.5788V15.4171ZM245.439 19.1953V21.9075L242.777 20.4812V17.7618L245.439 19.1953ZM245.439 16.0906V18.5146L242.154 16.7641L242.176 20.1714L239.683 18.846V13.0399L245.435 16.0942L245.439 16.0906Z" fill="white"/>
</g>
<defs>
<linearGradient id="paint0_linear_2909_5211" x1="244" y1="1.81836" x2="244" y2="38.182" gradientUnits="userSpaceOnUse">
<stop stop-color="#FF33A3"/>
<stop offset="1" stop-color="#E92B93"/>
</linearGradient>
<linearGradient id="paint1_linear_2909_5211" x1="230.964" y1="32.6769" x2="256.677" y2="6.96376" gradientUnits="userSpaceOnUse">
<stop stop-color="#E62686"/>
<stop offset="1" stop-color="#E82F89"/>
</linearGradient>
<clipPath id="clip0_2909_5211">
<rect width="30.303" height="9.09091" fill="white" transform="translate(4.36365 15.2729)"/>
</clipPath>
<clipPath id="clip1_2909_5211">
<rect width="21.8182" height="23.7363" fill="white" transform="translate(40.9092 8)"/>
</clipPath>
<clipPath id="clip2_2909_5211">
<rect width="22.1114" height="17.2204" fill="white" transform="translate(73.4478 10.6274)"/>
</clipPath>
<clipPath id="clip3_2909_5211">
<rect width="29.0909" height="7.71913" fill="white" transform="translate(101.273 16.1821)"/>
</clipPath>
<clipPath id="clip4_2909_5211">
<rect width="29.0909" height="15.9067" fill="white" transform="translate(133.273 9.81836)"/>
</clipPath>
<clipPath id="clip5_2909_5211">
<rect width="36.3636" height="36.3636" fill="white" transform="translate(161.818 1.81836)"/>
</clipPath>
<clipPath id="clip6_2909_5211">
<rect width="29.0909" height="13.468" fill="white" transform="translate(197.273 13.4546)"/>
</clipPath>
<clipPath id="clip7_2909_5211">
<rect width="36.3636" height="36.3636" fill="white" transform="translate(225.636 1.63672)"/>
</clipPath>
</defs>
</svg>
