<svg width="214" height="70" viewBox="0 0 567 185" fill="none" xmlns="http://www.w3.org/2000/svg">
    <mask id="mask0_768_511" maskUnits="userSpaceOnUse" x="10" y="10" width="164" height="164">
        <path d="M74.2462 18.1776L17.6777 74.7462C7.91456 84.5093 7.91456 100.338 17.6777 110.101L74.2462 166.67C84.0093 176.433 99.8384 176.433 109.602 166.67L166.17 110.101C175.933 100.338 175.933 84.5093 166.17 74.7462L109.602 18.1776C99.8384 8.41451 84.0093 8.41451 74.2462 18.1776Z" fill="white"></path>
    </mask>
    <g mask="url(#mask0_768_511)">
        <path d="M99.6875 68.9346V84.3115L245 84.3115V68.9346L99.6875 68.9346Z" fill="#1A9DE5"></path>
        <path d="M99.6875 38.1807V53.5576L244.999 53.5576V38.1807L99.6875 38.1807Z" fill="#1A9DE5"></path>
        <path d="M99.6875 7.4273V22.8042L244.999 22.8042V7.4273L99.6875 7.4273Z" fill="#1A9DE5"></path>
        <path d="M161.197 245H176.574L176.574 99.688H161.197L161.197 245Z" fill="#27D318"></path>
        <path d="M130.443 245H145.82L145.82 99.688H130.443L130.443 245Z" fill="#27D318"></path>
        <path d="M99.6895 245H115.066L115.066 99.688H99.6895L99.6895 245Z" fill="#27D318"></path>
        <path d="M68.9356 84.3115H84.3125L84.3125 -61.0005H68.9356L68.9356 84.3115Z" fill="#A058A2"></path>
        <path d="M38.1817 84.3115H53.5586L53.5586 -61.0005H38.1817L38.1817 84.3115Z" fill="#A058A2"></path>
        <path d="M7.42779 84.3115H22.8047L22.8047 -61.0005H7.42779L7.42779 84.3115Z" fill="#A058A2"></path>
        <path d="M-61 161.196V176.573H84.312V161.196H-61Z" fill="#E89831"></path>
        <path d="M-61 130.442V145.819H84.312V130.442H-61Z" fill="#E89831"></path>
        <path d="M-61 99.688V115.065L84.312 115.065V99.688L-61 99.688Z" fill="#E89831"></path>
    </g>
    <path d="M318.298 112.756C318.298 124.86 314.916 134.116 308.152 140.524C301.388 146.813 291.895 149.958 279.672 149.958C267.449 149.958 257.956 146.813 251.192 140.524C244.547 134.116 241.224 124.86 241.224 112.756V35.86H262.228V112.044C262.228 118.452 263.711 123.377 266.678 126.818C269.763 130.259 274.095 131.98 279.672 131.98C285.368 131.98 289.699 130.259 292.666 126.818C295.751 123.377 297.294 118.452 297.294 112.044V35.86H318.298V112.756ZM378.274 59.89C385.275 59.89 390.793 62.1447 394.828 66.654C398.981 71.0447 401.058 78.046 401.058 87.658V148H381.478V92.998C381.478 87.658 380.469 83.8013 378.452 81.428C376.553 79.0547 373.765 77.868 370.086 77.868C366.289 77.868 363.085 79.5293 360.474 82.852C357.982 86.056 356.736 90.15 356.736 95.134V148H337.156V61.848H353.354L355.49 72.528H356.38C358.872 68.7307 361.898 65.7047 365.458 63.45C369.137 61.0767 373.409 59.89 378.274 59.89ZM419.025 29.63H438.605V47.43H419.025V29.63ZM419.025 61.848H438.605V148H419.025V61.848ZM489.684 78.402H477.224V126.284C477.224 128.539 477.817 130.319 479.004 131.624C480.191 132.811 481.911 133.404 484.166 133.404H489.684V148C488.26 148.475 486.361 148.89 483.988 149.246C481.733 149.721 479.716 149.958 477.936 149.958C470.697 149.958 465.476 147.763 462.272 143.372C459.187 138.981 457.644 133.463 457.644 126.818V78.402H448.922V61.848H457.644L460.67 37.64H477.224V61.848H489.684V78.402ZM530.264 59.89C540.707 59.89 548.479 63.5687 553.582 70.926C558.803 78.2833 561.414 89.6753 561.414 105.102V109.908H517.804C517.923 117.977 518.931 124.029 520.83 128.064C522.847 131.98 526.229 133.938 530.976 133.938C534.417 133.938 537.087 132.514 538.986 129.666C541.003 126.699 542.012 122.665 542.012 117.562H561.414C561.414 128.242 558.625 136.311 553.048 141.77C547.471 147.229 540.113 149.958 530.976 149.958C508.429 149.958 497.156 135.006 497.156 105.102C497.156 74.9607 508.192 59.89 530.264 59.89ZM530.264 75.91C526.229 75.91 523.203 77.5713 521.186 80.894C519.287 84.2167 518.219 89.1413 517.982 95.668H540.944C540.944 89.26 540.054 84.3947 538.274 81.072C536.494 77.6307 533.824 75.91 530.264 75.91Z" fill="#171717"></path>
</svg>